<svg width="24" height="24" viewBox="0 0 24 24" fill="none" xmlns="http://www.w3.org/2000/svg">
<g clip-path="url(#clip0_1_14676)">
<path d="M15.729 8.2081C15.256 8.1711 14.748 8.2841 13.97 8.5811C14.036 8.5561 13.228 8.8711 13.002 8.9511C12.5 9.1261 12.087 9.2221 11.624 9.2221C11.166 9.2221 10.744 9.1301 10.258 8.9671C10.103 8.9141 9.947 8.8571 9.753 8.7811C9.671 8.7491 9.371 8.6291 9.305 8.6041C8.657 8.3501 8.292 8.2541 7.989 8.2621C6.837 8.2771 5.746 8.9421 5.113 10.0441C3.821 12.2881 4.536 16.3431 6.425 19.0751C7.431 20.5191 7.981 21.0351 8.203 21.0281C8.425 21.0181 8.588 20.9711 8.986 20.8031L9.153 20.7321C10.158 20.3031 10.863 20.1141 11.924 20.1141C12.945 20.1141 13.627 20.3001 14.592 20.7161L14.76 20.7881C15.158 20.9581 15.302 20.9961 15.552 20.9901C15.91 20.9851 16.351 20.5731 17.33 19.1361C17.598 18.7451 17.835 18.3331 18.04 17.9161C17.9053 17.8051 17.7745 17.6894 17.648 17.5691C16.359 16.3411 15.562 14.6851 15.54 12.6391C15.5185 11.1253 16.0161 9.64971 16.95 8.4581C16.558 8.31339 16.1463 8.22909 15.729 8.2081ZM15.884 6.2141C16.592 6.2621 18.62 6.4781 19.94 8.4101C19.832 8.4701 17.516 9.8141 17.54 12.6221C17.576 15.9821 20.48 17.0981 20.516 17.1101C20.492 17.1941 20.048 18.7061 18.98 20.2661C18.056 21.6221 17.096 22.9661 15.584 22.9901C14.096 23.0261 13.616 22.1141 11.924 22.1141C10.22 22.1141 9.692 22.9661 8.288 23.0261C6.824 23.0741 5.72 21.5621 4.784 20.2181C2.876 17.4581 1.424 12.4421 3.38 9.0461C4.352 7.3541 6.08 6.2861 7.964 6.2621C9.392 6.2261 10.748 7.2221 11.624 7.2221C12.488 7.2221 14.036 6.0701 15.884 6.2141ZM14.744 4.3901C13.964 5.3261 12.692 6.0581 11.456 5.9621C11.288 4.6901 11.912 3.3581 12.632 2.5301C13.436 1.5941 14.78 0.898098 15.896 0.850098C16.04 2.1461 15.524 3.4541 14.744 4.3901Z" fill="black"/>
</g>
<defs>
<clipPath id="clip0_1_14676">
<rect width="24" height="24" fill="white"/>
</clipPath>
</defs>
</svg>
