<svg width="24" height="24" viewBox="0 0 24 24" fill="none" xmlns="http://www.w3.org/2000/svg">
<path d="M14.448 16.2398C13.9125 17.0013 13.329 17.7277 12.701 18.4148C14.373 20.0378 15.929 20.7978 16.791 20.2988C17.655 19.8008 17.774 18.0738 17.205 15.8148C16.352 16.0048 15.425 16.1488 14.448 16.2398ZM13.138 16.3268C12.3797 16.3582 11.6203 16.3582 10.862 16.3268C11.239 16.8188 11.62 17.2748 12 17.6908C12.38 17.2748 12.76 16.8188 13.138 16.3268ZM18.178 8.43284C20.843 9.19684 22.583 10.4668 22.583 11.9998C22.583 13.5328 20.843 14.8028 18.178 15.5668C18.848 18.2568 18.619 20.3988 17.292 21.1648C15.964 21.9318 13.994 21.0598 12 19.1348C10.006 21.0598 8.03601 21.9318 6.70801 21.1648C5.38101 20.3988 5.15101 18.2568 5.82201 15.5668C3.15701 14.8028 1.41701 13.5328 1.41701 11.9998C1.41701 10.4668 3.15701 9.19684 5.82201 8.43284C5.15201 5.74284 5.38101 3.60084 6.70801 2.83484C8.03601 2.06784 10.006 2.93984 12 4.86484C13.994 2.93984 15.964 2.06784 17.292 2.83484C18.619 3.60084 18.849 5.74284 18.178 8.43284ZM17.205 8.18484C17.775 5.92484 17.655 4.19884 16.792 3.70084C15.929 3.20184 14.373 3.96184 12.702 5.58484C13.293 6.22784 13.881 6.95884 14.448 7.75984C15.426 7.84984 16.352 7.99384 17.205 8.18484ZM6.79501 15.8148C6.22501 18.0748 6.34501 19.8008 7.20801 20.2988C8.07101 20.7978 9.62701 20.0378 11.298 18.4148C10.6703 17.7277 10.0872 17.0012 9.55201 16.2398C8.6249 16.157 7.70403 16.015 6.79501 15.8148ZM10.862 7.67284C11.6203 7.64144 12.3797 7.64144 13.138 7.67284C12.7785 7.2023 12.3988 6.74754 12 6.30984C11.62 6.72584 11.24 7.18184 10.862 7.67384V7.67284ZM9.55201 7.75984C10.0878 6.99838 10.6717 6.2719 11.3 5.58484C9.62701 3.96184 8.07001 3.20184 7.20901 3.70084C6.34501 4.19884 6.22601 5.92584 6.79501 8.18484C7.64801 7.99484 8.57501 7.85084 9.55201 7.75984ZM13.894 15.2798C14.6058 14.2352 15.2386 13.1388 15.787 11.9998C15.2386 10.8609 14.6058 9.76448 13.894 8.71984C12.6331 8.62543 11.3669 8.62543 10.106 8.71984C9.39417 9.76448 8.7614 10.8609 8.21301 11.9998C8.7614 13.1388 9.39417 14.2352 10.106 15.2798C11.3669 15.3742 12.6331 15.3742 13.894 15.2798ZM15.178 15.1488C15.793 15.0688 16.378 14.9658 16.928 14.8448C16.7482 14.2806 16.544 13.7244 16.316 13.1778C15.964 13.8499 15.5843 14.5071 15.178 15.1478V15.1488ZM8.82201 8.84984C8.20701 8.92984 7.62201 9.03284 7.07201 9.15384C7.24201 9.68984 7.44601 10.2478 7.68401 10.8208C8.03602 10.1488 8.41567 9.49153 8.82201 8.85084V8.84984ZM7.07201 14.8438C7.62201 14.9648 8.20701 15.0668 8.82201 15.1478C8.41567 14.5071 8.03602 13.8499 7.68401 13.1778C7.44601 13.7498 7.24201 14.3078 7.07201 14.8438ZM6.09401 14.5988C6.35501 13.7648 6.69401 12.8908 7.10401 11.9988C6.69401 11.1068 6.35501 10.2328 6.09401 9.39884C3.85201 10.0358 2.41701 11.0028 2.41701 11.9988C2.41701 12.9948 3.85201 13.9618 6.09401 14.5988ZM16.928 9.15384C16.378 9.03284 15.793 8.93084 15.178 8.84984C15.5843 9.49053 15.964 10.1478 16.316 10.8198C16.554 10.2478 16.758 9.68984 16.928 9.15384ZM17.906 9.39884C17.645 10.2328 17.306 11.1068 16.896 11.9988C17.306 12.8908 17.645 13.7648 17.906 14.5988C20.148 13.9618 21.583 12.9948 21.583 11.9988C21.583 11.0028 20.148 10.0358 17.906 9.39884ZM12 13.8798C11.7531 13.8798 11.5087 13.8312 11.2806 13.7367C11.0525 13.6423 10.8452 13.5038 10.6706 13.3292C10.4961 13.1546 10.3576 12.9474 10.2631 12.7193C10.1686 12.4912 10.12 12.2467 10.12 11.9998C10.12 11.753 10.1686 11.5085 10.2631 11.2804C10.3576 11.0523 10.4961 10.8451 10.6706 10.6705C10.8452 10.4959 11.0525 10.3574 11.2806 10.2629C11.5087 10.1685 11.7531 10.1198 12 10.1198C12.4986 10.1198 12.9768 10.3179 13.3294 10.6705C13.6819 11.023 13.88 11.5012 13.88 11.9998C13.88 12.4984 13.6819 12.9766 13.3294 13.3292C12.9768 13.6818 12.4986 13.8798 12 13.8798Z" fill="black"/>
</svg>
