<svg width="24" height="24" viewBox="0 0 24 24" fill="none" xmlns="http://www.w3.org/2000/svg">
<path d="M13.37 2.09383C10.9773 1.76469 8.54625 2.31238 6.52583 3.63579C4.50541 4.9592 3.03205 6.96893 2.3778 9.2939C1.72356 11.6189 1.93261 14.102 2.96637 16.2849C4.00012 18.4677 5.78876 20.2029 8.002 21.1698C7.94215 20.4016 7.99709 19.6288 8.165 18.8768C8.35 18.0378 9.461 13.4138 9.461 13.4138C9.23977 12.9179 9.12921 12.3798 9.137 11.8368C9.137 10.3518 9.994 9.24383 11.06 9.24383C11.2515 9.24105 11.4414 9.27953 11.6167 9.35666C11.792 9.4338 11.9486 9.54778 12.076 9.69086C12.2033 9.83393 12.2983 10.0027 12.3546 10.1858C12.4108 10.3689 12.427 10.5619 12.402 10.7518C12.402 11.6518 11.824 13.0138 11.522 14.2918C11.4623 14.5262 11.4585 14.7713 11.5109 15.0075C11.5634 15.2436 11.6705 15.4641 11.8238 15.6512C11.977 15.8383 12.1721 15.9868 12.3932 16.0847C12.6144 16.1826 12.8555 16.2272 13.097 16.2148C14.995 16.2148 16.267 13.7838 16.267 10.9138C16.267 8.71383 14.81 7.06583 12.124 7.06583C11.4814 7.04086 10.8404 7.14676 10.2399 7.37709C9.63949 7.60742 9.09212 7.95738 8.63105 8.40572C8.16999 8.85406 7.80486 9.39144 7.55783 9.98521C7.31079 10.579 7.18701 11.2168 7.194 11.8598C7.16537 12.5732 7.39551 13.2728 7.842 13.8298C7.92544 13.8921 7.98636 13.9798 8.01558 14.0798C8.0448 14.1797 8.04074 14.2864 8.004 14.3838C7.958 14.5678 7.842 15.0068 7.796 15.1678C7.78644 15.2224 7.76418 15.274 7.73103 15.3184C7.69787 15.3629 7.65475 15.3989 7.60513 15.4236C7.55552 15.4483 7.50079 15.461 7.44536 15.4607C7.38993 15.4604 7.33534 15.4471 7.286 15.4218C5.902 14.8678 5.25 13.3448 5.25 11.6058C5.25 8.75883 7.634 5.35083 12.404 5.35083C16.2 5.35083 18.724 8.12783 18.724 11.0978C18.724 15.0068 16.547 17.9458 13.33 17.9458C12.8492 17.9612 12.3723 17.8551 11.9433 17.6373C11.5144 17.4195 11.1473 17.0971 10.876 16.6998C10.876 16.6998 10.298 19.0158 10.184 19.4538C9.9513 20.2105 9.60791 20.9286 9.165 21.5848C10.088 21.8648 11.047 22.0048 12.011 22.0008C13.3246 22.0019 14.6255 21.7438 15.8392 21.2414C17.0529 20.739 18.1556 20.0021 19.0841 19.0729C20.0126 18.1438 20.7487 17.0406 21.2503 15.8265C21.7518 14.6125 22.009 13.3114 22.007 11.9978C22.0058 9.58283 21.1308 7.24983 19.5436 5.42961C17.9565 3.6094 15.7643 2.4249 13.372 2.09483L13.37 2.09383Z" fill="black"/>
</svg>
